<svg xmlns="http://www.w3.org/2000/svg" viewBox="80 2 85 132">
  <defs>
    <linearGradient id="fg" x1="80" x2="165" y1="134" y2="2" gradientUnits="userSpaceOnUse">
      <stop offset="0" stop-color="#4A2169"/>
      <stop offset=".48" stop-color="#9B3D96"/>
      <stop offset="1" stop-color="#FF9A23"/>
    </linearGradient>
  </defs>
  <path d="m161.3 5h-44.31c-9.85 0-16.89 8.92-16.89 18.93v9.39h-3.16v-9.84c0-7.76 2.54-14.41 8.39-18.48h-12.7c-5 0-9 4-9 9v108c0 5 4 9 9 9h13.72c5 0 9-4 9-9v-28.04c0-1 0.59-1.64 1.38-1.64h28.33c5.17 0 6.86-5.3 6.86-7.63v-18.36c0-4.47-3.54-8.82-7.26-8.82h-27.56c-1.22 0-1.75-1.06-1.75-1.89v-13.53c0-1.43 1.06-2.41 2.28-2.41h4.88v12.78l15.02-12.78h23.67c5.16 0 7.32-4.32 7.32-6.87v-20.73c0-3.96-2.88-7.08-7.22-7.08zm-36.53 21.41c-3.08 0-4.28-2.48-4.28-4.04 0-2.36 1.68-4.21 3.99-4.21 2.76 0 4.23 1.85 4.23 4.21 0 2.06-1.62 4.04-3.94 4.04zm14.02 0c-2.62 0-4.12-2.32-4.12-4.04 0-2.36 1.68-4.21 3.99-4.21 2.76 0 4.14 1.85 4.14 4.21 0 2.06-1.86 4.04-4.01 4.04zm13.57 0c-2.62 0-3.59-2.32-3.59-3.77 0-2.36 1.52-4.48 3.83-4.48 2.76 0 3.41 2.12 3.41 4.21 0 2.06-1.5 4.04-3.65 4.04z" fill="url(#fg)"/>
</svg>